# File created by Blade
# Date/Time:  Thu Jan 22 15:49:58 2015
# Frame Rate: 120.000 fps
#------------------------------------------------------
:FULLY-SPECIFIED
:DEGREES
1850
root 3.166125 37.211085 4.053160 -5.433304 -0.744726 2.833532
RightUpLeg 12.273750 -6.704151 -5.780062
RightLeg -4.660486 -0.000000 0.000000
RightFoot -11.293321 -14.645494 16.712477
RightToeBase 13.495364 -0.000000 -0.000000
LeftUpLeg 9.812654 4.382889 1.651542
LeftLeg -1.416389 -0.000000 0.000000
LeftFoot -5.808326 6.904347 -17.238625
LeftToeBase 8.999049 -0.000000 -0.000000
Spine 3.287534 1.674454 -0.663405
RightShoulder 3.658468 25.233380 -47.543977
RightArm 122.736732 -9.063249 56.428571
RightForeArm 26.852184 -0.000000 129.776012
RightHand 9.636733 -0.000000 10.460073
RightHandThumb1 -24.326973 -0.000000 -32.862282
LeftShoulder -2.164310 21.332527 9.945961
LeftArm 73.908558 4.236935 -78.495361
LeftForeArm -41.620704 -0.000000 120.779939
LeftHand -11.978672 -0.000000 -26.745213
LeftHandThumb1 -26.253704 0.000000 33.147579
Head -3.879308 -13.088645 5.974100
1851
root 3.166108 37.210453 4.055350 -5.433473 -0.749194 2.830490
RightUpLeg 12.277566 -6.693896 -5.777021
RightLeg -4.664039 -0.000000 0.000000
RightFoot -11.302385 -14.643052 16.752936
RightToeBase 13.521263 -0.000000 -0.000000
LeftUpLeg 9.818641 4.387355 1.656139
LeftLeg -1.420587 -0.000000 0.000000
LeftFoot -5.822577 6.898118 -17.268932
LeftToeBase 9.027662 -0.000000 -0.000000
Spine 3.284802 1.678491 -0.654727
RightShoulder 3.717901 25.281553 -47.508090
RightArm 122.701350 -9.062988 56.475640
RightForeArm 26.892405 -0.000000 129.789759
RightHand 9.545822 -0.000000 10.589760
RightHandThumb1 -24.326973 -0.000000 -32.862282
LeftShoulder -2.185985 21.332759 9.963099
LeftArm 73.882817 4.246654 -78.565564
LeftForeArm -41.689776 -0.000000 120.765568
LeftHand -11.995263 -0.000000 -26.833952
LeftHandThumb1 -26.253704 0.000000 33.147579
Head -3.854978 -13.108070 6.005628
1852
root 3.165549 37.210710 4.057381 -5.434974 -0.748587 2.832045
RightUpLeg 12.281059 -6.689151 -5.778343
RightLeg -4.661055 -0.000000 0.000000
RightFoot -11.299895 -14.641835 16.725960
RightToeBase 13.532363 -0.000000 -0.000000
LeftUpLeg 9.825705 4.390589 1.655458
LeftLeg -1.425927 -0.000000 0.000000
LeftFoot -5.810941 6.908280 -17.257354
LeftToeBase 8.917554 -0.000000 -0.000000
Spine 3.285493 1.677661 -0.655834
RightShoulder 3.693633 25.235560 -47.492823
RightArm 122.699423 -9.082082 56.468934
RightForeArm 26.851628 -0.000000 129.815511
RightHand 9.599304 -0.000000 10.557790
RightHandThumb1 -24.326973 -0.000000 -32.862282
LeftShoulder -2.221625 21.367853 9.971208
LeftArm 73.907706 4.261994 -78.599159
LeftForeArm -41.659346 -0.000000 120.750110
LeftHand -12.006968 0.000000 -26.793982
LeftHandThumb1 -26.253704 0.000000 33.147579
Head -3.816138 -13.187643 6.008340
1853
root 3.164485 37.210558 4.059306 -5.430797 -0.754580 2.831729
RightUpLeg 12.280373 -6.672456 -5.774705
RightLeg -4.662002 -0.000000 0.000000
RightFoot -11.306721 -14.643036 16.729534
RightToeBase 13.539711 -0.000000 -0.000000
LeftUpLeg 9.826083 4.410068 1.660230
LeftLeg -1.428543 -0.000000 0.000000
LeftFoot -5.812907 6.898291 -17.240944
LeftToeBase 8.916867 -0.000000 -0.000000
Spine 3.275626 1.686728 -0.651279
RightShoulder 3.674621 25.209892 -47.500442
RightArm 122.668208 -9.067805 56.468329
RightForeArm 26.809798 -0.000000 129.850851
RightHand 9.662130 0.000000 10.475220
RightHandThumb1 -24.326973 -0.000000 -32.862282
LeftShoulder -2.255766 21.386799 9.972738
LeftArm 73.930077 4.285512 -78.599789
LeftForeArm -41.454515 -0.000000 120.751768
LeftHand -12.001750 -0.000000 -26.648840
LeftHandThumb1 -26.253704 0.000000 33.147579
Head -3.782800 -13.229772 6.024232
1854
root 3.164176 37.210144 4.061692 -5.428841 -0.754815 2.834826
RightUpLeg 12.286585 -6.656216 -5.778520
RightLeg -4.665244 -0.000000 0.000000
RightFoot -11.329308 -14.638678 16.769587
RightToeBase 13.571458 -0.000000 -0.000000
LeftUpLeg 9.826993 4.428378 1.660328
LeftLeg -1.425716 -0.000000 0.000000
LeftFoot -5.810148 6.879221 -17.236107
LeftToeBase 8.896944 -0.000000 -0.000000
Spine 3.265445 1.687291 -0.645823
RightShoulder 3.685806 25.179812 -47.494362
RightArm 122.662735 -9.060590 56.483159
RightForeArm 26.758003 -0.000000 129.864029
RightHand 9.694430 0.000000 10.380419
RightHandThumb1 -24.326973 -0.000000 -32.862282
LeftShoulder -2.283198 21.412743 9.967547
LeftArm 73.945515 4.285997 -78.632100
LeftForeArm -41.519848 -0.000000 120.725226
LeftHand -12.065603 -0.000000 -26.675414
LeftHandThumb1 -26.253704 0.000000 33.147579
Head -3.753170 -13.208174 6.047463
